<svg xmlns="http://www.w3.org/2000/svg" viewBox="0 0 1200 120" preserveAspectRatio="none">
  <defs>
    <style>
      .canopy { fill: #2c2c2c; }
    </style>
  </defs>
  <!--
    Chaco canopy silhouette: a horizontal tree line as seen from ground level.
    Features typical Chaco trees including Palo Borracho (bottle-shaped trunks)
    and broader canopy trees.
  -->
  <path class="canopy" d="
    M0,120 L0,95

    C10,95 15,92 20,90
    C25,85 28,78 32,75
    C36,72 40,68 45,65
    C48,63 50,60 55,58
    C58,56 60,58 65,60
    C68,62 70,60 72,55
    C74,50 78,46 82,43
    C86,40 88,38 90,36
    C92,34 95,32 98,30
    C100,28 103,30 106,33
    C109,36 112,34 115,30
    C118,26 120,28 123,32
    C126,36 130,40 135,38
    C138,36 140,34 142,30

    C144,26 146,22 150,18
    C152,16 154,14 157,12
    C160,10 162,8 165,10
    C168,12 170,15 172,18
    C174,20 176,22 180,20
    C183,18 185,16 188,14
    C190,12 192,14 195,18
    C198,22 200,26 205,28
    C208,30 210,28 215,25
    C218,22 220,24 225,28
    C228,30 230,32 235,30

    C238,28 240,30 245,35
    C248,38 250,40 255,42
    C258,44 262,42 268,38
    C272,35 278,32 285,30

    C288,28 292,25 298,28
    C302,30 305,35 308,40
    C310,43 312,45 316,43
    C320,41 322,38 325,35
    C328,32 332,28 338,26
    C342,24 346,22 350,20
    C352,18 355,16 358,18
    C360,20 362,22 365,25
    C368,28 370,30 375,28
    C378,26 380,24 385,28
    C390,32 395,36 398,35

    C400,34 402,30 405,26
    C408,22 410,18 415,15
    C418,12 420,10 423,8
    C426,6 428,5 432,7
    C436,9 438,12 440,16
    C442,20 445,24 450,22
    C455,20 458,18 462,15
    C465,12 468,10 472,12
    C476,14 478,18 480,22
    C482,25 485,28 490,30
    C495,32 498,30 500,26
    C502,24 505,28 510,32
    C515,36 518,38 522,36

    C526,34 530,32 535,35
    C540,38 545,42 548,45
    C550,47 552,48 555,46
    C558,44 562,40 568,38
    C572,36 578,34 582,36
    C586,38 590,42 595,40
    C598,38 600,36 605,34

    C608,32 610,28 615,25
    C618,22 620,18 625,15
    C628,12 632,10 636,8
    C640,6 642,4 646,6
    C650,8 652,10 654,14
    C656,18 658,22 660,26
    C662,28 665,30 670,28
    C675,26 678,24 682,22
    C686,20 690,22 694,26
    C698,30 700,34 705,32

    C710,30 715,28 720,30
    C725,32 730,36 735,40
    C738,42 740,44 745,42
    C750,40 752,38 755,36
    C758,34 760,32 765,30
    C770,28 775,30 780,34
    C785,38 788,40 792,38

    C796,36 800,34 805,32
    C810,30 815,28 820,26
    C823,24 826,22 830,20
    C834,18 836,15 840,12
    C844,9 846,7 850,9
    C854,11 856,14 858,18
    C860,22 862,26 865,30
    C868,33 870,35 875,33
    C880,31 885,28 890,30
    C895,32 900,36 905,34

    C910,32 915,30 920,32
    C925,34 930,38 935,42
    C938,44 940,46 945,44
    C948,42 950,40 955,38
    C960,36 965,38 970,42
    C975,46 978,48 982,46
    C986,44 990,40 995,38

    C1000,36 1005,34 1010,36
    C1015,38 1020,42 1025,40
    C1030,38 1035,35 1040,32
    C1045,30 1050,28 1055,30
    C1060,32 1065,36 1070,40
    C1075,44 1078,46 1082,44
    C1086,42 1090,38 1095,36
    C1100,34 1105,36 1110,40
    C1115,44 1118,46 1122,48
    C1126,50 1130,48 1135,44
    C1140,40 1145,38 1150,40
    C1155,42 1160,46 1165,48
    C1170,50 1175,48 1180,44
    C1185,40 1190,42 1195,46
    L1200,48 1200,120 Z
  "/>

  <!-- Palo Borracho tree 1: bottle-shaped trunk -->
  <path class="canopy" d="
    M148,120 L148,70
    C147,60 145,50 144,40
    C143,30 145,22 150,18
    C155,22 157,30 156,40
    C155,50 153,60 152,70
    L152,120 Z
  "/>
  <!-- Palo Borracho trunk bulge -->
  <ellipse class="canopy" cx="150" cy="85" rx="6" ry="18"/>

  <!-- Palo Borracho tree 2 -->
  <path class="canopy" d="
    M418,120 L418,60
    C417,50 416,40 415,30
    C414,22 417,15 423,8
    C429,15 430,22 429,30
    C428,40 427,50 426,60
    L426,120 Z
  "/>
  <ellipse class="canopy" cx="422" cy="80" rx="7" ry="20"/>

  <!-- Palo Borracho tree 3 -->
  <path class="canopy" d="
    M835,120 L835,65
    C834,55 833,45 832,35
    C831,25 833,18 840,12
    C847,18 848,25 847,35
    C846,45 845,55 844,65
    L844,120 Z
  "/>
  <ellipse class="canopy" cx="839.5" cy="82" rx="7.5" ry="20"/>

  <!-- Regular tree trunk 1 -->
  <rect class="canopy" x="95" y="30" width="6" height="90" rx="2"/>

  <!-- Regular tree trunk 2 -->
  <rect class="canopy" x="308" y="40" width="5" height="80" rx="2"/>

  <!-- Regular tree trunk 3 -->
  <rect class="canopy" x="630" y="8" width="5" height="112" rx="2"/>

  <!-- Regular tree trunk 4 -->
  <rect class="canopy" x="975" y="42" width="5" height="78" rx="2"/>

  <!-- Scattered shorter vegetation/bushes -->
  <ellipse class="canopy" cx="60" cy="92" rx="15" ry="8"/>
  <ellipse class="canopy" cx="250" cy="85" rx="12" ry="6"/>
  <ellipse class="canopy" cx="500" cy="88" rx="14" ry="7"/>
  <ellipse class="canopy" cx="700" cy="86" rx="13" ry="6"/>
  <ellipse class="canopy" cx="1100" cy="84" rx="16" ry="8"/>
</svg>
